<svg width="164" height="41" viewBox="0 0 164 41" fill="none" xmlns="http://www.w3.org/2000/svg">
<path d="M94.3666 12.8695C95.613 14.1173 96.1329 15.7018 96.1317 17.436C96.1308 17.5724 96.1298 17.7088 96.1289 17.8452C96.1288 17.992 96.1288 18.1387 96.129 18.2855C96.1291 18.6804 96.1275 19.0753 96.1257 19.4701C96.124 19.8841 96.1239 20.2981 96.1236 20.7121C96.1227 21.4945 96.1206 22.2768 96.1179 23.0592C96.115 23.9506 96.1136 24.842 96.1122 25.7333C96.1095 27.5655 96.1047 29.3976 96.099 31.2298C94.305 31.2298 92.5111 31.2298 90.6627 31.2298C90.6338 30.3633 90.6049 29.4967 90.5751 28.604C90.4015 28.8639 90.2278 29.1239 90.049 29.3917C89.0267 30.7246 87.5011 31.3964 85.8677 31.6264C83.9329 31.8565 81.7772 31.5489 80.141 30.442C78.9155 29.4791 78.1528 28.2802 77.9215 26.7221C77.7417 25.0339 77.8599 23.273 78.9455 21.8864C80.7486 19.792 83.5368 19.4309 86.1307 19.1455C88.2426 19.0014 88.2426 19.0014 90.1367 18.1882C90.4265 17.7818 90.3572 17.2625 90.312 16.7878C90.1589 16.072 89.7738 15.6172 89.1722 15.2123C88.2544 14.7282 87.0809 14.8024 86.1033 15.0372C85.3008 15.2952 84.5866 15.7791 84.1743 16.5252C84.0828 16.728 83.9969 16.9324 83.9113 17.1379C82.763 17.1009 81.6179 17.0303 80.4726 16.9416C80.3244 16.9302 80.1762 16.9191 80.0281 16.9082C79.8176 16.8927 79.6073 16.8761 79.397 16.8592C79.3331 16.8547 79.2691 16.8501 79.2033 16.8454C78.7581 16.8078 78.7581 16.8078 78.5627 16.6127C79.1443 14.5285 80.2153 12.9028 82.1158 11.7854C85.8069 9.82719 91.1524 10.0803 94.3666 12.8695ZM90.1291 21.9854C89.8001 22.1275 89.4674 22.2166 89.1174 22.291C89.0517 22.3055 88.9861 22.3199 88.9185 22.3348C88.4739 22.4295 88.0278 22.5083 87.5792 22.5813C87.4134 22.6085 87.4134 22.6085 87.2442 22.6362C87.0261 22.6715 86.8078 22.7056 86.5893 22.7384C85.4152 22.9268 84.4449 23.2359 83.6482 24.1401C83.2823 24.6879 83.321 25.3415 83.3852 25.9781C83.5341 26.5616 83.942 26.9682 84.4374 27.291C85.4232 27.8083 86.7122 27.7949 87.7693 27.5044C88.902 27.0944 89.6702 26.4231 90.2206 25.3637C90.4984 24.5711 90.5105 23.7736 90.4983 22.942C90.4975 22.8378 90.4968 22.7336 90.4959 22.6263C90.4939 22.3723 90.491 22.1183 90.4874 21.8644C90.3636 21.8584 90.3636 21.8584 90.1291 21.9854Z" fill="#0F0F0F"/>
<path d="M130.036 13.2805C132.509 15.7702 132.662 19.2634 132.662 22.5646C128.091 22.5646 123.519 22.5646 118.809 22.5646C119.14 24.2181 119.423 25.5254 120.764 26.5737C121.908 27.3261 123.253 27.4531 124.574 27.1926C125.407 26.9738 126.167 26.5806 126.7 25.8906C126.783 25.74 126.861 25.5871 126.936 25.4325C126.975 25.3542 127.013 25.2759 127.052 25.1953C127.095 25.1062 127.095 25.1062 127.138 25.0153C128.923 25.1119 130.706 25.218 132.487 25.3654C132.194 27.1472 131.199 28.7256 129.769 29.8293C127.256 31.5728 124.069 32.0193 121.086 31.5238C118.606 31.0731 116.419 29.912 114.951 27.8162C113.658 25.8022 113.158 23.5832 113.164 21.2079C113.164 21.1431 113.164 21.0783 113.164 21.0115C113.174 18.0373 114.056 15.3692 116.112 13.1725C119.812 9.5529 126.362 9.75095 130.036 13.2805ZM120.036 16.0875C119.323 16.9107 118.896 17.8915 118.896 18.9759C121.616 18.9759 124.336 18.9759 127.138 18.9759C127.009 17.6885 126.596 16.6036 125.646 15.6995C123.992 14.3957 121.504 14.6619 120.036 16.0875Z" fill="#0F0F0F"/>
<path d="M160.345 13.2566C161.475 14.4403 162.188 15.8529 162.633 17.4169C162.658 17.5071 162.658 17.5071 162.685 17.5992C162.98 18.7101 163.035 19.8086 163.033 20.9508C163.033 21.0243 163.033 21.0979 163.033 21.1737C163.03 22.2874 162.961 23.3278 162.649 24.4026C162.619 24.5215 162.589 24.6403 162.559 24.7593C162.198 26.1141 161.507 27.4085 160.545 28.4289C160.487 28.4926 160.487 28.4926 160.428 28.5576C159.782 29.265 159.096 29.7927 158.265 30.267C158.179 30.3164 158.092 30.3658 158.003 30.4167C155.531 31.7339 152.293 31.838 149.63 31.0653C147.237 30.3042 145.325 28.7466 144.148 26.53C143.749 25.739 143.477 24.9128 143.272 24.0525C143.257 23.9927 143.243 23.9328 143.228 23.8712C142.55 20.9086 142.921 17.3948 144.499 14.7746C144.743 14.4072 145.006 14.0632 145.288 13.7243C145.385 13.6082 145.385 13.6082 145.483 13.4898C147.184 11.5227 149.576 10.6211 152.122 10.4147C155.268 10.2883 158.066 11.0339 160.345 13.2566ZM150.019 16.3799C148.751 18.107 148.604 20.4421 148.856 22.5044C149.116 24.0334 149.661 25.4536 150.92 26.4274C151.778 27.0051 152.796 27.1056 153.804 26.9792C154.877 26.767 155.618 26.1497 156.216 25.267C157.384 23.3447 157.542 20.7452 157.041 18.5817C156.666 17.3188 156.116 16.0754 154.936 15.3719C153.195 14.4531 151.264 14.9167 150.019 16.3799Z" fill="#0F0F0F"/>
<path d="M56.8176 11.6237C58.872 11.6237 60.9264 11.6237 63.043 11.6237C64.1134 14.9626 65.1812 18.3023 66.2379 21.6455C66.2614 21.7197 66.2848 21.7938 66.3089 21.8702C66.5942 22.7727 66.8792 23.6752 67.164 24.5777C67.4387 23.9244 67.6646 23.2618 67.8771 22.5861C67.9284 22.4246 67.9284 22.4246 67.9807 22.2598C68.0732 21.968 68.1654 21.6761 68.2575 21.3842C68.3542 21.0778 68.4514 20.7714 68.5485 20.4651C68.7692 19.7685 68.9894 19.0717 69.2094 18.3749C69.3051 18.0721 69.4007 17.7694 69.4963 17.4666C69.5147 17.4084 69.5331 17.3502 69.552 17.2903C69.6427 17.0033 69.7334 16.7163 69.824 16.4294C69.9923 15.897 70.1604 15.3646 70.3282 14.8321C70.3893 14.6382 70.4505 14.4444 70.5117 14.2505C70.5379 14.167 70.5642 14.0835 70.5912 13.9975C70.8423 13.2028 71.1086 12.4146 71.3728 11.6237C73.4271 11.6237 75.4815 11.6237 77.5982 11.6237C77.4406 12.2003 77.2847 12.7609 77.0885 13.3227C77.0382 13.4686 76.9879 13.6145 76.9376 13.7605C76.8971 13.8776 76.8971 13.8776 76.8558 13.9972C76.1705 15.98 75.5063 17.9697 74.8437 19.9601C74.7395 20.273 74.6352 20.586 74.531 20.8989C74.0724 22.275 73.6142 23.6513 73.1565 25.0277C72.9148 25.7544 72.6729 26.481 72.4307 27.2075C72.2788 27.6632 72.1272 28.1189 71.9759 28.5747C71.8826 28.8554 71.789 29.136 71.6954 29.4165C71.652 29.5465 71.6088 29.6765 71.5658 29.8066C71.5072 29.9837 71.448 30.1606 71.3888 30.3375C71.3559 30.4365 71.3229 30.5354 71.289 30.6374C71.1974 30.8797 71.1974 30.8797 71.022 31.1423C70.7729 31.1673 70.543 31.1754 70.2938 31.1721C70.2185 31.1721 70.1433 31.1721 70.0657 31.1722C69.8161 31.172 69.5666 31.17 69.317 31.1679C69.1443 31.1674 68.9716 31.167 68.7988 31.1668C68.3436 31.1658 67.8884 31.1632 67.4332 31.1603C66.9689 31.1576 66.5046 31.1564 66.0403 31.1551C65.1289 31.1523 64.2175 31.1478 63.3061 31.1423C61.7351 26.4986 60.1712 21.8526 58.6171 17.2032C58.4746 16.777 58.3319 16.3507 58.1892 15.9245C57.996 15.3473 57.8031 14.77 57.6103 14.1926C57.5387 13.9783 57.4671 13.7641 57.3953 13.5498C57.2972 13.2569 57.1994 12.9638 57.1017 12.6707C57.0726 12.5842 57.0436 12.4976 57.0136 12.4084C56.9875 12.33 56.9615 12.2515 56.9346 12.1708C56.9119 12.1027 56.8891 12.0346 56.8657 11.9644C56.8176 11.7987 56.8176 11.7987 56.8176 11.6237Z" fill="#0F0F0F"/>
<path d="M134.591 11.6237C136.588 11.6237 138.584 11.6237 140.641 11.6237C140.645 14.4194 140.648 17.2151 140.65 20.0109C140.65 20.3416 140.651 20.6723 140.651 21.003C140.651 21.0689 140.651 21.1347 140.651 21.2025C140.652 22.2659 140.653 23.3292 140.655 24.3926C140.656 25.4852 140.657 26.5779 140.658 27.6705C140.658 28.3437 140.659 29.0169 140.66 29.6901C140.661 30.2079 140.661 30.7257 140.661 31.2436C140.661 31.4548 140.661 31.666 140.662 31.8773C140.669 34.279 140.566 36.5552 138.821 38.3913C137.393 39.7773 135.647 40.0379 133.735 40.0237C132.134 39.9862 130.425 39.6535 128.979 38.9322C129.114 38.0678 129.329 37.2219 129.538 36.3731C129.599 36.1238 129.66 35.8743 129.721 35.6248C129.76 35.4662 129.799 35.3076 129.837 35.149C129.856 35.0745 129.874 34.9999 129.893 34.923C130.022 34.401 130.022 34.401 130.119 34.2057C130.423 34.2577 130.682 34.3383 130.963 34.4628C131.776 34.7923 132.727 34.9973 133.568 34.6454C133.999 34.3984 134.317 34.0887 134.467 33.6009C134.505 33.4076 134.515 33.2315 134.516 33.0345C134.516 32.9579 134.517 32.8813 134.517 32.8023C134.517 32.7186 134.517 32.6348 134.517 32.5485C134.518 32.4592 134.518 32.3699 134.519 32.2779C134.52 31.9778 134.521 31.6777 134.521 31.3776C134.522 31.1628 134.523 30.948 134.524 30.7333C134.526 30.2704 134.528 29.8076 134.529 29.3447C134.531 28.6755 134.533 28.0063 134.536 27.3372C134.54 26.2514 134.544 25.1657 134.548 24.08C134.551 23.0253 134.555 21.9706 134.558 20.916C134.559 20.851 134.559 20.7859 134.559 20.719C134.56 20.3928 134.562 20.0667 134.563 19.7406C134.573 17.035 134.582 14.3293 134.591 11.6237Z" fill="#0F0F0F"/>
<path d="M112.408 11.3611C112.408 13.4407 112.408 15.5204 112.408 17.663C111.626 17.663 110.845 17.663 110.04 17.663C108.783 17.7616 107.534 17.9785 106.533 18.8009C106.478 18.8447 106.424 18.8884 106.368 18.9336C105.647 19.5765 105.272 20.5313 105.201 21.4812C105.193 21.7373 105.19 21.9928 105.19 22.249C105.189 22.3456 105.188 22.4422 105.187 22.5417C105.185 22.8585 105.183 23.1753 105.182 23.4922C105.18 23.7128 105.178 23.9334 105.176 24.154C105.172 24.6738 105.169 25.1937 105.166 25.7135C105.162 26.4681 105.156 27.2226 105.15 27.9772C105.143 29.0322 105.137 30.0872 105.13 31.1422C103.105 31.1422 101.079 31.1422 98.9924 31.1422C98.9924 24.7011 98.9924 18.26 98.9924 11.6237C101.018 11.6237 103.043 11.6237 105.13 11.6237C105.159 12.6635 105.188 13.7033 105.218 14.7746C105.536 14.3991 105.854 14.0237 106.182 13.6368C106.848 13.0809 107.504 12.6095 108.287 12.2363C108.366 12.1979 108.446 12.1594 108.528 12.1198C109.76 11.5658 111.064 11.3611 112.408 11.3611Z" fill="#0F0F0F"/>
<path d="M37.1771 11.011C38.2477 11.011 39.3182 11.011 40.4213 11.011C40.4213 17.6832 40.4213 24.3554 40.4213 31.2298C39.3507 31.2298 38.2801 31.2298 37.1771 31.2298C37.1481 30.3344 37.1192 29.439 37.0894 28.5164C36.8579 28.8342 36.6264 29.1519 36.3879 29.4792C35.4498 30.5394 34.0679 31.2172 32.6513 31.3366C30.6223 31.4219 28.8292 31.0132 27.269 29.6543C27.1841 29.5866 27.0991 29.5189 27.0115 29.4491C25.6992 28.3556 24.9088 26.5035 24.7263 24.8403C24.61 22.4577 25.009 20.3503 26.6334 18.525C27.879 17.1849 29.554 16.3191 31.399 16.2376C33.1364 16.1934 34.6769 16.5929 36.0208 17.7372C36.4295 18.1387 36.7719 18.5881 37.0894 19.0635C37.1183 16.4061 37.1473 13.7488 37.1771 11.011ZM29.0227 20.814C28.1631 21.8824 27.8767 23.0496 27.9705 24.4026C28.1617 25.7084 28.8673 26.7546 29.8831 27.581C30.9095 28.3001 32.1734 28.5774 33.4013 28.3633C34.6208 28.089 35.6509 27.4339 36.3879 26.4158C37.0693 25.329 37.3457 24.0965 37.0778 22.843C36.9235 22.1814 36.712 21.6263 36.3002 21.0766C36.2542 21.0149 36.2082 20.9532 36.1608 20.8896C35.4763 20.0455 34.411 19.3776 33.3191 19.2385C31.613 19.1343 30.226 19.541 29.0227 20.814Z" fill="#0F0F0F"/>
<path d="M53.8803 16.9574C55.5252 18.377 56.1318 20.1963 56.3792 22.302C56.3792 23.0241 56.3792 23.7462 56.3792 24.4902C52.7623 24.4902 49.1455 24.4902 45.419 24.4902C45.6965 26.0598 45.9428 27.2719 47.2439 28.2429C48.3552 28.9665 49.576 29.0775 50.8559 28.845C51.6101 28.6553 52.321 28.2469 52.7572 27.5943C52.8487 27.4413 52.938 27.287 53.0244 27.131C53.135 26.9409 53.135 26.9409 53.3103 26.7659C53.5262 26.7859 53.7263 26.8158 53.9382 26.8575C54 26.869 54.0618 26.8805 54.1255 26.8923C54.2563 26.9169 54.3869 26.9419 54.5175 26.9674C54.718 27.0064 54.9188 27.0436 55.1196 27.0804C55.2464 27.1045 55.3732 27.1286 55.5 27.1529C55.5604 27.1641 55.6207 27.1752 55.6829 27.1867C55.8286 27.2157 55.9727 27.2526 56.1162 27.2911C56.2038 27.4661 56.2038 27.4661 56.135 27.6853C55.4416 29.3426 54.3742 30.4533 52.6966 31.1423C50.4877 31.8859 48.0299 31.7797 45.9376 30.746C44.2151 29.8067 43.1671 28.2246 42.6009 26.3802C42.3956 25.5232 42.3196 24.6917 42.3225 23.8116C42.3228 23.6324 42.3207 23.4534 42.3185 23.2742C42.3079 21.0681 43.0529 18.9074 44.6206 17.3198C47.1229 15.0203 51.1953 14.9104 53.8803 16.9574ZM46.3835 19.5011C45.7793 20.3023 45.5289 21.1398 45.419 22.1269C48.0231 22.1269 50.6273 22.1269 53.3103 22.1269C53.0928 20.7152 52.7662 19.6836 51.6557 18.7602C49.9669 17.5446 47.7227 18.0509 46.3835 19.5011Z" fill="#0F0F0F"/>
<path d="M139.572 4.15647C140.226 4.63715 140.726 5.21721 140.904 6.0219C140.991 7.01266 140.932 7.83855 140.29 8.64772C139.593 9.36769 138.861 9.7852 137.85 9.8112C136.752 9.82094 135.93 9.59984 135.117 8.82278C134.434 8.07769 134.262 7.34773 134.298 6.35868C134.338 5.91698 134.44 5.60475 134.679 5.23415C134.716 5.17334 134.753 5.11253 134.791 5.04987C135.291 4.30952 136.047 3.89569 136.907 3.6973C137.816 3.54218 138.783 3.66559 139.572 4.15647Z" fill="#FF5100"/>
<path d="M26.3113 8.2468C26.5279 7.57575 26.7459 6.90514 26.9648 6.23482C26.9648 6.23482 23.4687 8.1955 23.4987 8.23415C23.3146 8.14606 23.1621 8.0718 23.0096 7.93499C22.6537 7.55898 22.2837 7.19762 21.909 6.84045L21.7176 6.65866L21.53 6.47739L21.3515 6.30855C21.1298 6.09682 21.0975 6.04597 20.7805 6.04597C20.3324 7.14207 20.3324 7.14208 19.4858 9.37671L19.4858 9.37679L19.1678 10.2154L19.0368 10.5607L18.9711 10.734L18.773 11.256C18.5162 11.9331 18.2591 12.6102 18.0013 13.2869L17.8994 13.5542L17.6973 14.0843L17.5975 14.3461L17.4979 14.6072C17.0863 15.6871 16.6759 16.7673 16.2682 17.8486L16.0639 18.3907C15.8845 18.8664 15.705 19.342 15.5261 19.8179C15.0121 21.1851 14.4924 22.5488 13.9414 23.9015C13.4903 22.4107 13.028 20.9235 12.563 19.4369C12.3558 18.7744 12.1488 18.1118 11.9418 17.4493L11.798 16.9889C11.3217 15.4645 10.8462 13.9398 10.3714 12.4148L10.0565 11.4033C9.65433 10.1123 9.25247 8.82131 8.85317 7.52951C8.74146 7.1681 8.62961 6.80674 8.51774 6.44538C8.41398 6.11028 8.31034 5.77515 8.20709 5.4399C8.14373 5.23414 8.08023 5.02843 8.01658 4.82277L7.92833 4.53783L7.84726 4.27331L7.77103 4.02799C7.66116 3.67175 7.66116 3.67175 7.36525 2.98251H0C0 3.33262 7.93487e-07 3.33262 0.060158 3.55626L0.14652 3.81449L0.245555 4.11318C0.301702 4.27976 0.35783 4.44634 0.41344 4.61309C0.517183 4.92498 0.621316 5.23673 0.725931 5.54832C0.840298 5.88895 0.954209 6.22973 1.06795 6.57057C1.26487 7.16074 1.46209 7.75082 1.65971 8.34077C1.94819 9.20185 2.23627 10.0631 2.52405 10.9244C2.99014 12.3195 3.45661 13.7145 3.92347 15.1093C4.3787 16.4694 4.83379 17.8295 5.28851 19.1898L5.37354 19.4441L5.79632 20.7089C6.99084 24.2824 8.1862 27.8557 9.38193 31.4289H18.5885C18.7739 30.92 18.9592 30.4179 19.1258 29.9038C19.1685 29.7709 19.2114 29.638 19.2545 29.5051L19.3262 29.2836C19.8273 27.733 20.3374 26.1856 20.855 24.6405C21.342 23.1867 21.827 21.7325 22.3007 20.2744C23.101 17.8099 23.9163 15.3504 24.7585 12.8998C25.2903 11.3532 25.8086 9.80306 26.3113 8.2468Z" fill="#0F0F0F"/>
<path d="M28.8472 0.0700482C28.7054 0.788548 28.4815 1.47624 28.2537 2.17105C28.2117 2.29985 28.1698 2.42867 28.1279 2.5575C28.0166 2.89983 27.9048 3.24202 27.7928 3.58418C27.6777 3.93665 27.5629 4.28925 27.4481 4.64184C27.267 5.19769 27.0857 5.75347 26.9043 6.30919C26.6918 6.95979 26.4798 7.61053 26.2682 8.26138C26.2141 8.42748 26.1601 8.59358 26.1061 8.75968C26.0691 8.87346 26.0691 8.87346 26.0313 8.98954C25.8595 9.51754 25.6874 10.0454 25.5153 10.5733C25.4575 10.5733 25.3996 10.5733 25.34 10.5733C25.1905 10.3848 25.0507 10.1955 24.9125 9.99893C24.5694 9.5205 24.216 9.05481 23.8439 8.59849C23.477 8.14634 23.1274 7.68663 22.7929 7.21007C22.5734 6.89765 22.3486 6.59001 22.119 6.28483C22.0626 6.2096 22.0062 6.13438 21.9481 6.05687C21.8362 5.90794 21.7237 5.75937 21.6108 5.6112C21.5599 5.5433 21.5091 5.47541 21.4566 5.40546C21.4108 5.34496 21.3649 5.28446 21.3177 5.22213C21.2189 5.05911 21.2189 5.05911 21.2189 4.79653C21.3773 4.66842 21.3773 4.66842 21.6022 4.53292C21.6859 4.48174 21.7695 4.43057 21.8557 4.37784C21.9476 4.32285 22.0394 4.26785 22.1341 4.21119C22.3284 4.09255 22.5226 3.97379 22.7167 3.85492C22.7669 3.82436 22.817 3.79381 22.8687 3.76232C23.3941 3.44186 23.9124 3.11048 24.4303 2.77793C24.6112 2.662 24.7922 2.54609 24.9731 2.43021C25.0621 2.37322 25.1511 2.31622 25.2427 2.25751C25.7001 1.96499 26.1585 1.67394 26.6168 1.38296C26.7004 1.32992 26.7839 1.27689 26.87 1.22224C27.0614 1.10074 27.2529 0.979251 27.4443 0.857794C26.4373 1.33907 25.4604 1.87264 24.4845 2.41335C24.3742 2.47447 24.2638 2.5356 24.1535 2.59672C24.0989 2.62698 24.0443 2.65724 23.988 2.68841C23.3455 3.044 22.6989 3.39228 22.0519 3.73976C21.9714 3.78307 21.891 3.82637 21.808 3.87099C21.7384 3.90837 21.6687 3.94575 21.5969 3.98427C21.3885 4.09346 21.3885 4.09346 21.1931 4.24715C20.7594 4.45146 20.3291 4.30377 19.8945 4.15975C19.7686 4.114 19.643 4.0674 19.5177 4.02006C19.4173 3.98299 19.4173 3.98299 19.3149 3.94516C19.1749 3.89322 19.035 3.8409 18.8952 3.78823C18.6805 3.70746 18.4652 3.6282 18.2499 3.54909C18.1135 3.49829 17.9771 3.44741 17.8408 3.39643C17.7763 3.37272 17.7118 3.34901 17.6454 3.32458C17.1957 3.15368 17.1957 3.15368 17.0979 2.95845C17.2008 2.9315 17.3037 2.90454 17.4097 2.87677C18.3922 2.61943 19.3746 2.36203 20.357 2.10458C20.9604 1.94646 21.5638 1.78838 22.1672 1.63033C22.4601 1.5536 22.753 1.47683 23.0459 1.40005C23.4286 1.29974 23.8114 1.19958 24.1942 1.09952C25.0077 0.886659 25.8207 0.672649 26.6315 0.449561C26.7561 0.415481 26.8807 0.381408 27.0053 0.347343C27.2254 0.287168 27.4449 0.22579 27.6644 0.163634C27.7583 0.137884 27.8522 0.112135 27.949 0.0856048C28.0282 0.0633318 28.1074 0.0410588 28.1891 0.0181108C28.4334 -0.0214532 28.6094 0.00736726 28.8472 0.0700482Z" fill="#FE5100"/>
</svg>
